ISO-10303-21;
HEADER;
/* Generated by software containing ST-Developer
 * from STEP Tools, Inc. (www.steptools.com) 
 */

FILE_DESCRIPTION(
/* description */ (''),
/* implementation_level */ '2;1');

FILE_NAME(
/* name */ '83fba850-dda3-4b76-838a-ff4048db29b5.stp',
/* time_stamp */ '2025-07-07T17:41:40Z',
/* author */ (''),
/* organization */ (''),
/* preprocessor_version */ 'ST-DEVELOPER v20.1',
/* originating_system */ 'Autodesk Translation Framework v14.10.0.0',
/* authorisation */ '');

FILE_SCHEMA (('AUTOMOTIVE_DESIGN { 1 0 10303 214 3 1 1 }'));
ENDSEC;

DATA;
#10=MECHANICAL_DESIGN_GEOMETRIC_PRESENTATION_REPRESENTATION('',(#13),#923);
#11=SHAPE_REPRESENTATION_RELATIONSHIP('SRR','None',#930,#12);
#12=ADVANCED_BREP_SHAPE_REPRESENTATION('',(#14),#922);
#13=STYLED_ITEM('',(#939),#14);
#14=MANIFOLD_SOLID_BREP('Body1',#543);
#15=FACE_BOUND('',#103,.T.);
#16=FACE_BOUND('',#104,.T.);
#17=FACE_BOUND('',#105,.T.);
#18=FACE_BOUND('',#106,.T.);
#19=FACE_BOUND('',#119,.T.);
#20=FACE_BOUND('',#120,.T.);
#21=FACE_BOUND('',#121,.T.);
#22=FACE_BOUND('',#122,.T.);
#23=FACE_BOUND('',#125,.T.);
#24=FACE_BOUND('',#128,.T.);
#25=FACE_BOUND('',#131,.T.);
#26=FACE_BOUND('',#134,.T.);
#27=CIRCLE('',#565,3.);
#28=CIRCLE('',#566,3.);
#29=CIRCLE('',#569,3.);
#30=CIRCLE('',#570,3.);
#31=CIRCLE('',#571,3.);
#32=CIRCLE('',#572,2.5);
#33=CIRCLE('',#573,2.5);
#34=CIRCLE('',#574,2.5);
#35=CIRCLE('',#575,2.5);
#36=CIRCLE('',#577,3.);
#37=CIRCLE('',#580,3.);
#38=CIRCLE('',#583,3.);
#39=CIRCLE('',#587,3.50000001490116);
#40=CIRCLE('',#588,3.50000001490116);
#41=CIRCLE('',#590,3.50000001490116);
#42=CIRCLE('',#591,3.50000001490116);
#43=CIRCLE('',#593,3.50000001490116);
#44=CIRCLE('',#594,3.50000001490116);
#45=CIRCLE('',#596,3.50000001490116);
#46=CIRCLE('',#597,3.50000001490116);
#47=CIRCLE('',#600,2.5);
#48=CIRCLE('',#603,2.5);
#49=CIRCLE('',#606,2.5);
#50=CIRCLE('',#609,2.5);
#51=CYLINDRICAL_SURFACE('',#564,3.);
#52=CYLINDRICAL_SURFACE('',#576,3.);
#53=CYLINDRICAL_SURFACE('',#579,3.);
#54=CYLINDRICAL_SURFACE('',#582,3.);
#55=CYLINDRICAL_SURFACE('',#586,3.50000001490116);
#56=CYLINDRICAL_SURFACE('',#589,3.50000001490116);
#57=CYLINDRICAL_SURFACE('',#592,3.50000001490116);
#58=CYLINDRICAL_SURFACE('',#595,3.50000001490116);
#59=CYLINDRICAL_SURFACE('',#599,2.5);
#60=CYLINDRICAL_SURFACE('',#602,2.5);
#61=CYLINDRICAL_SURFACE('',#605,2.5);
#62=CYLINDRICAL_SURFACE('',#608,2.5);
#63=FACE_OUTER_BOUND('',#93,.T.);
#64=FACE_OUTER_BOUND('',#94,.T.);
#65=FACE_OUTER_BOUND('',#95,.T.);
#66=FACE_OUTER_BOUND('',#96,.T.);
#67=FACE_OUTER_BOUND('',#97,.T.);
#68=FACE_OUTER_BOUND('',#98,.T.);
#69=FACE_OUTER_BOUND('',#99,.T.);
#70=FACE_OUTER_BOUND('',#100,.T.);
#71=FACE_OUTER_BOUND('',#101,.T.);
#72=FACE_OUTER_BOUND('',#102,.T.);
#73=FACE_OUTER_BOUND('',#107,.T.);
#74=FACE_OUTER_BOUND('',#108,.T.);
#75=FACE_OUTER_BOUND('',#109,.T.);
#76=FACE_OUTER_BOUND('',#110,.T.);
#77=FACE_OUTER_BOUND('',#111,.T.);
#78=FACE_OUTER_BOUND('',#112,.T.);
#79=FACE_OUTER_BOUND('',#113,.T.);
#80=FACE_OUTER_BOUND('',#114,.T.);
#81=FACE_OUTER_BOUND('',#115,.T.);
#82=FACE_OUTER_BOUND('',#116,.T.);
#83=FACE_OUTER_BOUND('',#117,.T.);
#84=FACE_OUTER_BOUND('',#118,.T.);
#85=FACE_OUTER_BOUND('',#123,.T.);
#86=FACE_OUTER_BOUND('',#124,.T.);
#87=FACE_OUTER_BOUND('',#126,.T.);
#88=FACE_OUTER_BOUND('',#127,.T.);
#89=FACE_OUTER_BOUND('',#129,.T.);
#90=FACE_OUTER_BOUND('',#130,.T.);
#91=FACE_OUTER_BOUND('',#132,.T.);
#92=FACE_OUTER_BOUND('',#133,.T.);
#93=EDGE_LOOP('',(#351,#352,#353,#354,#355,#356,#357,#358));
#94=EDGE_LOOP('',(#359,#360,#361,#362));
#95=EDGE_LOOP('',(#363,#364,#365,#366));
#96=EDGE_LOOP('',(#367,#368,#369,#370));
#97=EDGE_LOOP('',(#371,#372,#373,#374));
#98=EDGE_LOOP('',(#375,#376,#377,#378));
#99=EDGE_LOOP('',(#379,#380,#381,#382));
#100=EDGE_LOOP('',(#383,#384,#385,#386));
#101=EDGE_LOOP('',(#387,#388,#389,#390));
#102=EDGE_LOOP('',(#391,#392,#393,#394,#395,#396,#397,#398,#399,#400,#401,
#402,#403,#404,#405,#406));
#103=EDGE_LOOP('',(#407));
#104=EDGE_LOOP('',(#408));
#105=EDGE_LOOP('',(#409));
#106=EDGE_LOOP('',(#410));
#107=EDGE_LOOP('',(#411,#412,#413,#414));
#108=EDGE_LOOP('',(#415,#416,#417,#418,#419,#420,#421,#422));
#109=EDGE_LOOP('',(#423,#424,#425,#426));
#110=EDGE_LOOP('',(#427,#428,#429,#430));
#111=EDGE_LOOP('',(#431,#432,#433,#434));
#112=EDGE_LOOP('',(#435,#436,#437,#438));
#113=EDGE_LOOP('',(#439,#440,#441,#442));
#114=EDGE_LOOP('',(#443,#444,#445,#446));
#115=EDGE_LOOP('',(#447,#448,#449,#450));
#116=EDGE_LOOP('',(#451,#452,#453,#454));
#117=EDGE_LOOP('',(#455,#456,#457,#458));
#118=EDGE_LOOP('',(#459,#460,#461,#462,#463,#464,#465,#466));
#119=EDGE_LOOP('',(#467));
#120=EDGE_LOOP('',(#468));
#121=EDGE_LOOP('',(#469));
#122=EDGE_LOOP('',(#470));
#123=EDGE_LOOP('',(#471,#472,#473,#474));
#124=EDGE_LOOP('',(#475));
#125=EDGE_LOOP('',(#476));
#126=EDGE_LOOP('',(#477,#478,#479,#480));
#127=EDGE_LOOP('',(#481));
#128=EDGE_LOOP('',(#482));
#129=EDGE_LOOP('',(#483,#484,#485,#486));
#130=EDGE_LOOP('',(#487));
#131=EDGE_LOOP('',(#488));
#132=EDGE_LOOP('',(#489,#490,#491,#492));
#133=EDGE_LOOP('',(#493));
#134=EDGE_LOOP('',(#494));
#135=LINE('',#773,#183);
#136=LINE('',#775,#184);
#137=LINE('',#777,#185);
#138=LINE('',#779,#186);
#139=LINE('',#781,#187);
#140=LINE('',#783,#188);
#141=LINE('',#785,#189);
#142=LINE('',#786,#190);
#143=LINE('',#789,#191);
#144=LINE('',#791,#192);
#145=LINE('',#792,#193);
#146=LINE('',#795,#194);
#147=LINE('',#797,#195);
#148=LINE('',#798,#196);
#149=LINE('',#800,#197);
#150=LINE('',#801,#198);
#151=LINE('',#804,#199);
#152=LINE('',#806,#200);
#153=LINE('',#807,#201);
#154=LINE('',#810,#202);
#155=LINE('',#811,#203);
#156=LINE('',#814,#204);
#157=LINE('',#815,#205);
#158=LINE('',#821,#206);
#159=LINE('',#824,#207);
#160=LINE('',#827,#208);
#161=LINE('',#829,#209);
#162=LINE('',#830,#210);
#163=LINE('',#833,#211);
#164=LINE('',#836,#212);
#165=LINE('',#840,#213);
#166=LINE('',#843,#214);
#167=LINE('',#854,#215);
#168=LINE('',#858,#216);
#169=LINE('',#859,#217);
#170=LINE('',#862,#218);
#171=LINE('',#866,#219);
#172=LINE('',#867,#220);
#173=LINE('',#870,#221);
#174=LINE('',#873,#222);
#175=LINE('',#879,#223);
#176=LINE('',#885,#224);
#177=LINE('',#891,#225);
#178=LINE('',#897,#226);
#179=LINE('',#902,#227);
#180=LINE('',#907,#228);
#181=LINE('',#912,#229);
#182=LINE('',#917,#230);
#183=VECTOR('',#615,10.);
#184=VECTOR('',#616,10.);
#185=VECTOR('',#617,10.);
#186=VECTOR('',#618,10.);
#187=VECTOR('',#619,10.);
#188=VECTOR('',#620,10.);
#189=VECTOR('',#621,10.);
#190=VECTOR('',#622,10.);
#191=VECTOR('',#625,10.);
#192=VECTOR('',#626,10.);
#193=VECTOR('',#627,10.);
#194=VECTOR('',#630,10.);
#195=VECTOR('',#631,10.);
#196=VECTOR('',#632,10.);
#197=VECTOR('',#635,10.);
#198=VECTOR('',#636,10.);
#199=VECTOR('',#639,10.);
#200=VECTOR('',#640,10.);
#201=VECTOR('',#641,10.);
#202=VECTOR('',#644,10.);
#203=VECTOR('',#645,10.);
#204=VECTOR('',#648,10.);
#205=VECTOR('',#649,10.);
#206=VECTOR('',#654,10.);
#207=VECTOR('',#657,10.);
#208=VECTOR('',#660,10.);
#209=VECTOR('',#661,10.);
#210=VECTOR('',#662,10.);
#211=VECTOR('',#665,10.);
#212=VECTOR('',#668,10.);
#213=VECTOR('',#671,10.);
#214=VECTOR('',#674,10.);
#215=VECTOR('',#685,10.);
#216=VECTOR('',#690,10.);
#217=VECTOR('',#691,10.);
#218=VECTOR('',#694,10.);
#219=VECTOR('',#699,10.);
#220=VECTOR('',#700,10.);
#221=VECTOR('',#703,10.);
#222=VECTOR('',#708,10.);
#223=VECTOR('',#715,3.50000001490116);
#224=VECTOR('',#722,3.50000001490116);
#225=VECTOR('',#729,3.50000001490116);
#226=VECTOR('',#736,3.50000001490116);
#227=VECTOR('',#743,2.5);
#228=VECTOR('',#750,2.5);
#229=VECTOR('',#757,2.5);
#230=VECTOR('',#764,2.5);
#231=VERTEX_POINT('',#771);
#232=VERTEX_POINT('',#772);
#233=VERTEX_POINT('',#774);
#234=VERTEX_POINT('',#776);
#235=VERTEX_POINT('',#778);
#236=VERTEX_POINT('',#780);
#237=VERTEX_POINT('',#782);
#238=VERTEX_POINT('',#784);
#239=VERTEX_POINT('',#788);
#240=VERTEX_POINT('',#790);
#241=VERTEX_POINT('',#794);
#242=VERTEX_POINT('',#796);
#243=VERTEX_POINT('',#803);
#244=VERTEX_POINT('',#805);
#245=VERTEX_POINT('',#809);
#246=VERTEX_POINT('',#813);
#247=VERTEX_POINT('',#817);
#248=VERTEX_POINT('',#818);
#249=VERTEX_POINT('',#820);
#250=VERTEX_POINT('',#822);
#251=VERTEX_POINT('',#826);
#252=VERTEX_POINT('',#828);
#253=VERTEX_POINT('',#832);
#254=VERTEX_POINT('',#835);
#255=VERTEX_POINT('',#837);
#256=VERTEX_POINT('',#839);
#257=VERTEX_POINT('',#841);
#258=VERTEX_POINT('',#844);
#259=VERTEX_POINT('',#846);
#260=VERTEX_POINT('',#848);
#261=VERTEX_POINT('',#850);
#262=VERTEX_POINT('',#853);
#263=VERTEX_POINT('',#857);
#264=VERTEX_POINT('',#861);
#265=VERTEX_POINT('',#865);
#266=VERTEX_POINT('',#869);
#267=VERTEX_POINT('',#876);
#268=VERTEX_POINT('',#878);
#269=VERTEX_POINT('',#882);
#270=VERTEX_POINT('',#884);
#271=VERTEX_POINT('',#888);
#272=VERTEX_POINT('',#890);
#273=VERTEX_POINT('',#894);
#274=VERTEX_POINT('',#896);
#275=VERTEX_POINT('',#901);
#276=VERTEX_POINT('',#906);
#277=VERTEX_POINT('',#911);
#278=VERTEX_POINT('',#916);
#279=EDGE_CURVE('',#231,#232,#135,.T.);
#280=EDGE_CURVE('',#233,#231,#136,.T.);
#281=EDGE_CURVE('',#233,#234,#137,.T.);
#282=EDGE_CURVE('',#234,#235,#138,.T.);
#283=EDGE_CURVE('',#236,#235,#139,.T.);
#284=EDGE_CURVE('',#237,#236,#140,.T.);
#285=EDGE_CURVE('',#238,#237,#141,.T.);
#286=EDGE_CURVE('',#232,#238,#142,.T.);
#287=EDGE_CURVE('',#235,#239,#143,.T.);
#288=EDGE_CURVE('',#234,#240,#144,.T.);
#289=EDGE_CURVE('',#240,#239,#145,.T.);
#290=EDGE_CURVE('',#239,#241,#146,.T.);
#291=EDGE_CURVE('',#240,#242,#147,.T.);
#292=EDGE_CURVE('',#242,#241,#148,.T.);
#293=EDGE_CURVE('',#241,#231,#149,.T.);
#294=EDGE_CURVE('',#242,#233,#150,.T.);
#295=EDGE_CURVE('',#238,#243,#151,.T.);
#296=EDGE_CURVE('',#244,#243,#152,.T.);
#297=EDGE_CURVE('',#232,#244,#153,.T.);
#298=EDGE_CURVE('',#245,#237,#154,.T.);
#299=EDGE_CURVE('',#243,#245,#155,.T.);
#300=EDGE_CURVE('',#246,#236,#156,.T.);
#301=EDGE_CURVE('',#245,#246,#157,.T.);
#302=EDGE_CURVE('',#247,#248,#27,.T.);
#303=EDGE_CURVE('',#248,#249,#158,.T.);
#304=EDGE_CURVE('',#249,#250,#28,.T.);
#305=EDGE_CURVE('',#250,#247,#159,.T.);
#306=EDGE_CURVE('',#251,#248,#160,.T.);
#307=EDGE_CURVE('',#252,#251,#161,.T.);
#308=EDGE_CURVE('',#249,#252,#162,.T.);
#309=EDGE_CURVE('',#244,#253,#163,.T.);
#310=EDGE_CURVE('',#251,#253,#29,.T.);
#311=EDGE_CURVE('',#247,#254,#164,.T.);
#312=EDGE_CURVE('',#255,#254,#30,.T.);
#313=EDGE_CURVE('',#255,#256,#165,.T.);
#314=EDGE_CURVE('',#257,#256,#31,.T.);
#315=EDGE_CURVE('',#257,#246,#166,.T.);
#316=EDGE_CURVE('',#258,#258,#32,.T.);
#317=EDGE_CURVE('',#259,#259,#33,.T.);
#318=EDGE_CURVE('',#260,#260,#34,.T.);
#319=EDGE_CURVE('',#261,#261,#35,.T.);
#320=EDGE_CURVE('',#253,#262,#167,.T.);
#321=EDGE_CURVE('',#262,#252,#36,.T.);
#322=EDGE_CURVE('',#263,#257,#168,.T.);
#323=EDGE_CURVE('',#262,#263,#169,.T.);
#324=EDGE_CURVE('',#256,#264,#170,.T.);
#325=EDGE_CURVE('',#264,#263,#37,.T.);
#326=EDGE_CURVE('',#265,#255,#171,.T.);
#327=EDGE_CURVE('',#264,#265,#172,.T.);
#328=EDGE_CURVE('',#254,#266,#173,.T.);
#329=EDGE_CURVE('',#266,#265,#38,.T.);
#330=EDGE_CURVE('',#266,#250,#174,.T.);
#331=EDGE_CURVE('',#267,#267,#39,.T.);
#332=EDGE_CURVE('',#267,#268,#175,.T.);
#333=EDGE_CURVE('',#268,#268,#40,.T.);
#334=EDGE_CURVE('',#269,#269,#41,.T.);
#335=EDGE_CURVE('',#269,#270,#176,.T.);
#336=EDGE_CURVE('',#270,#270,#42,.T.);
#337=EDGE_CURVE('',#271,#271,#43,.T.);
#338=EDGE_CURVE('',#271,#272,#177,.T.);
#339=EDGE_CURVE('',#272,#272,#44,.T.);
#340=EDGE_CURVE('',#273,#273,#45,.T.);
#341=EDGE_CURVE('',#273,#274,#178,.T.);
#342=EDGE_CURVE('',#274,#274,#46,.T.);
#343=EDGE_CURVE('',#260,#275,#179,.T.);
#344=EDGE_CURVE('',#275,#275,#47,.T.);
#345=EDGE_CURVE('',#259,#276,#180,.T.);
#346=EDGE_CURVE('',#276,#276,#48,.T.);
#347=EDGE_CURVE('',#261,#277,#181,.T.);
#348=EDGE_CURVE('',#277,#277,#49,.T.);
#349=EDGE_CURVE('',#258,#278,#182,.T.);
#350=EDGE_CURVE('',#278,#278,#50,.T.);
#351=ORIENTED_EDGE('',*,*,#279,.F.);
#352=ORIENTED_EDGE('',*,*,#280,.F.);
#353=ORIENTED_EDGE('',*,*,#281,.T.);
#354=ORIENTED_EDGE('',*,*,#282,.T.);
#355=ORIENTED_EDGE('',*,*,#283,.F.);
#356=ORIENTED_EDGE('',*,*,#284,.F.);
#357=ORIENTED_EDGE('',*,*,#285,.F.);
#358=ORIENTED_EDGE('',*,*,#286,.F.);
#359=ORIENTED_EDGE('',*,*,#287,.F.);
#360=ORIENTED_EDGE('',*,*,#282,.F.);
#361=ORIENTED_EDGE('',*,*,#288,.T.);
#362=ORIENTED_EDGE('',*,*,#289,.T.);
#363=ORIENTED_EDGE('',*,*,#290,.F.);
#364=ORIENTED_EDGE('',*,*,#289,.F.);
#365=ORIENTED_EDGE('',*,*,#291,.T.);
#366=ORIENTED_EDGE('',*,*,#292,.T.);
#367=ORIENTED_EDGE('',*,*,#293,.F.);
#368=ORIENTED_EDGE('',*,*,#292,.F.);
#369=ORIENTED_EDGE('',*,*,#294,.T.);
#370=ORIENTED_EDGE('',*,*,#280,.T.);
#371=ORIENTED_EDGE('',*,*,#286,.T.);
#372=ORIENTED_EDGE('',*,*,#295,.T.);
#373=ORIENTED_EDGE('',*,*,#296,.F.);
#374=ORIENTED_EDGE('',*,*,#297,.F.);
#375=ORIENTED_EDGE('',*,*,#285,.T.);
#376=ORIENTED_EDGE('',*,*,#298,.F.);
#377=ORIENTED_EDGE('',*,*,#299,.F.);
#378=ORIENTED_EDGE('',*,*,#295,.F.);
#379=ORIENTED_EDGE('',*,*,#284,.T.);
#380=ORIENTED_EDGE('',*,*,#300,.F.);
#381=ORIENTED_EDGE('',*,*,#301,.F.);
#382=ORIENTED_EDGE('',*,*,#298,.T.);
#383=ORIENTED_EDGE('',*,*,#302,.T.);
#384=ORIENTED_EDGE('',*,*,#303,.T.);
#385=ORIENTED_EDGE('',*,*,#304,.T.);
#386=ORIENTED_EDGE('',*,*,#305,.T.);
#387=ORIENTED_EDGE('',*,*,#303,.F.);
#388=ORIENTED_EDGE('',*,*,#306,.F.);
#389=ORIENTED_EDGE('',*,*,#307,.F.);
#390=ORIENTED_EDGE('',*,*,#308,.F.);
#391=ORIENTED_EDGE('',*,*,#279,.T.);
#392=ORIENTED_EDGE('',*,*,#297,.T.);
#393=ORIENTED_EDGE('',*,*,#309,.T.);
#394=ORIENTED_EDGE('',*,*,#310,.F.);
#395=ORIENTED_EDGE('',*,*,#306,.T.);
#396=ORIENTED_EDGE('',*,*,#302,.F.);
#397=ORIENTED_EDGE('',*,*,#311,.T.);
#398=ORIENTED_EDGE('',*,*,#312,.F.);
#399=ORIENTED_EDGE('',*,*,#313,.T.);
#400=ORIENTED_EDGE('',*,*,#314,.F.);
#401=ORIENTED_EDGE('',*,*,#315,.T.);
#402=ORIENTED_EDGE('',*,*,#300,.T.);
#403=ORIENTED_EDGE('',*,*,#283,.T.);
#404=ORIENTED_EDGE('',*,*,#287,.T.);
#405=ORIENTED_EDGE('',*,*,#290,.T.);
#406=ORIENTED_EDGE('',*,*,#293,.T.);
#407=ORIENTED_EDGE('',*,*,#316,.T.);
#408=ORIENTED_EDGE('',*,*,#317,.T.);
#409=ORIENTED_EDGE('',*,*,#318,.T.);
#410=ORIENTED_EDGE('',*,*,#319,.T.);
#411=ORIENTED_EDGE('',*,*,#310,.T.);
#412=ORIENTED_EDGE('',*,*,#320,.T.);
#413=ORIENTED_EDGE('',*,*,#321,.T.);
#414=ORIENTED_EDGE('',*,*,#307,.T.);
#415=ORIENTED_EDGE('',*,*,#320,.F.);
#416=ORIENTED_EDGE('',*,*,#309,.F.);
#417=ORIENTED_EDGE('',*,*,#296,.T.);
#418=ORIENTED_EDGE('',*,*,#299,.T.);
#419=ORIENTED_EDGE('',*,*,#301,.T.);
#420=ORIENTED_EDGE('',*,*,#315,.F.);
#421=ORIENTED_EDGE('',*,*,#322,.F.);
#422=ORIENTED_EDGE('',*,*,#323,.F.);
#423=ORIENTED_EDGE('',*,*,#314,.T.);
#424=ORIENTED_EDGE('',*,*,#324,.T.);
#425=ORIENTED_EDGE('',*,*,#325,.T.);
#426=ORIENTED_EDGE('',*,*,#322,.T.);
#427=ORIENTED_EDGE('',*,*,#324,.F.);
#428=ORIENTED_EDGE('',*,*,#313,.F.);
#429=ORIENTED_EDGE('',*,*,#326,.F.);
#430=ORIENTED_EDGE('',*,*,#327,.F.);
#431=ORIENTED_EDGE('',*,*,#312,.T.);
#432=ORIENTED_EDGE('',*,*,#328,.T.);
#433=ORIENTED_EDGE('',*,*,#329,.T.);
#434=ORIENTED_EDGE('',*,*,#326,.T.);
#435=ORIENTED_EDGE('',*,*,#305,.F.);
#436=ORIENTED_EDGE('',*,*,#330,.F.);
#437=ORIENTED_EDGE('',*,*,#328,.F.);
#438=ORIENTED_EDGE('',*,*,#311,.F.);
#439=ORIENTED_EDGE('',*,*,#281,.F.);
#440=ORIENTED_EDGE('',*,*,#294,.F.);
#441=ORIENTED_EDGE('',*,*,#291,.F.);
#442=ORIENTED_EDGE('',*,*,#288,.F.);
#443=ORIENTED_EDGE('',*,*,#331,.T.);
#444=ORIENTED_EDGE('',*,*,#332,.T.);
#445=ORIENTED_EDGE('',*,*,#333,.T.);
#446=ORIENTED_EDGE('',*,*,#332,.F.);
#447=ORIENTED_EDGE('',*,*,#334,.T.);
#448=ORIENTED_EDGE('',*,*,#335,.T.);
#449=ORIENTED_EDGE('',*,*,#336,.T.);
#450=ORIENTED_EDGE('',*,*,#335,.F.);
#451=ORIENTED_EDGE('',*,*,#337,.T.);
#452=ORIENTED_EDGE('',*,*,#338,.T.);
#453=ORIENTED_EDGE('',*,*,#339,.T.);
#454=ORIENTED_EDGE('',*,*,#338,.F.);
#455=ORIENTED_EDGE('',*,*,#340,.T.);
#456=ORIENTED_EDGE('',*,*,#341,.T.);
#457=ORIENTED_EDGE('',*,*,#342,.T.);
#458=ORIENTED_EDGE('',*,*,#341,.F.);
#459=ORIENTED_EDGE('',*,*,#304,.F.);
#460=ORIENTED_EDGE('',*,*,#308,.T.);
#461=ORIENTED_EDGE('',*,*,#321,.F.);
#462=ORIENTED_EDGE('',*,*,#323,.T.);
#463=ORIENTED_EDGE('',*,*,#325,.F.);
#464=ORIENTED_EDGE('',*,*,#327,.T.);
#465=ORIENTED_EDGE('',*,*,#329,.F.);
#466=ORIENTED_EDGE('',*,*,#330,.T.);
#467=ORIENTED_EDGE('',*,*,#342,.F.);
#468=ORIENTED_EDGE('',*,*,#333,.F.);
#469=ORIENTED_EDGE('',*,*,#336,.F.);
#470=ORIENTED_EDGE('',*,*,#339,.F.);
#471=ORIENTED_EDGE('',*,*,#318,.F.);
#472=ORIENTED_EDGE('',*,*,#343,.T.);
#473=ORIENTED_EDGE('',*,*,#344,.T.);
#474=ORIENTED_EDGE('',*,*,#343,.F.);
#475=ORIENTED_EDGE('',*,*,#340,.F.);
#476=ORIENTED_EDGE('',*,*,#344,.F.);
#477=ORIENTED_EDGE('',*,*,#317,.F.);
#478=ORIENTED_EDGE('',*,*,#345,.T.);
#479=ORIENTED_EDGE('',*,*,#346,.T.);
#480=ORIENTED_EDGE('',*,*,#345,.F.);
#481=ORIENTED_EDGE('',*,*,#337,.F.);
#482=ORIENTED_EDGE('',*,*,#346,.F.);
#483=ORIENTED_EDGE('',*,*,#319,.F.);
#484=ORIENTED_EDGE('',*,*,#347,.T.);
#485=ORIENTED_EDGE('',*,*,#348,.T.);
#486=ORIENTED_EDGE('',*,*,#347,.F.);
#487=ORIENTED_EDGE('',*,*,#334,.F.);
#488=ORIENTED_EDGE('',*,*,#348,.F.);
#489=ORIENTED_EDGE('',*,*,#316,.F.);
#490=ORIENTED_EDGE('',*,*,#349,.T.);
#491=ORIENTED_EDGE('',*,*,#350,.T.);
#492=ORIENTED_EDGE('',*,*,#349,.F.);
#493=ORIENTED_EDGE('',*,*,#331,.F.);
#494=ORIENTED_EDGE('',*,*,#350,.F.);
#495=PLANE('',#557);
#496=PLANE('',#558);
#497=PLANE('',#559);
#498=PLANE('',#560);
#499=PLANE('',#561);
#500=PLANE('',#562);
#501=PLANE('',#563);
#502=PLANE('',#567);
#503=PLANE('',#568);
#504=PLANE('',#578);
#505=PLANE('',#581);
#506=PLANE('',#584);
#507=PLANE('',#585);
#508=PLANE('',#598);
#509=PLANE('',#601);
#510=PLANE('',#604);
#511=PLANE('',#607);
#512=PLANE('',#610);
#513=ADVANCED_FACE('',(#63),#495,.F.);
#514=ADVANCED_FACE('',(#64),#496,.F.);
#515=ADVANCED_FACE('',(#65),#497,.F.);
#516=ADVANCED_FACE('',(#66),#498,.F.);
#517=ADVANCED_FACE('',(#67),#499,.F.);
#518=ADVANCED_FACE('',(#68),#500,.F.);
#519=ADVANCED_FACE('',(#69),#501,.F.);
#520=ADVANCED_FACE('',(#70),#51,.T.);
#521=ADVANCED_FACE('',(#71),#502,.T.);
#522=ADVANCED_FACE('',(#72,#15,#16,#17,#18),#503,.T.);
#523=ADVANCED_FACE('',(#73),#52,.T.);
#524=ADVANCED_FACE('',(#74),#504,.T.);
#525=ADVANCED_FACE('',(#75),#53,.T.);
#526=ADVANCED_FACE('',(#76),#505,.T.);
#527=ADVANCED_FACE('',(#77),#54,.T.);
#528=ADVANCED_FACE('',(#78),#506,.T.);
#529=ADVANCED_FACE('',(#79),#507,.T.);
#530=ADVANCED_FACE('',(#80),#55,.F.);
#531=ADVANCED_FACE('',(#81),#56,.F.);
#532=ADVANCED_FACE('',(#82),#57,.F.);
#533=ADVANCED_FACE('',(#83),#58,.F.);
#534=ADVANCED_FACE('',(#84,#19,#20,#21,#22),#508,.F.);
#535=ADVANCED_FACE('',(#85),#59,.F.);
#536=ADVANCED_FACE('',(#86,#23),#509,.F.);
#537=ADVANCED_FACE('',(#87),#60,.F.);
#538=ADVANCED_FACE('',(#88,#24),#510,.F.);
#539=ADVANCED_FACE('',(#89),#61,.F.);
#540=ADVANCED_FACE('',(#90,#25),#511,.F.);
#541=ADVANCED_FACE('',(#91),#62,.F.);
#542=ADVANCED_FACE('',(#92,#26),#512,.F.);
#543=CLOSED_SHELL('',(#513,#514,#515,#516,#517,#518,#519,#520,#521,#522,
#523,#524,#525,#526,#527,#528,#529,#530,#531,#532,#533,#534,#535,#536,#537,
#538,#539,#540,#541,#542));
#544=DERIVED_UNIT_ELEMENT(#546,1.);
#545=DERIVED_UNIT_ELEMENT(#925,-3.);
#546=(
MASS_UNIT()
NAMED_UNIT(*)
SI_UNIT(.KILO.,.GRAM.)
);
#547=DERIVED_UNIT((#544,#545));
#548=MEASURE_REPRESENTATION_ITEM('density measure',
POSITIVE_RATIO_MEASURE(7850.),#547);
#549=PROPERTY_DEFINITION_REPRESENTATION(#554,#551);
#550=PROPERTY_DEFINITION_REPRESENTATION(#555,#552);
#551=REPRESENTATION('material name',(#553),#922);
#552=REPRESENTATION('density',(#548),#922);
#553=DESCRIPTIVE_REPRESENTATION_ITEM('Steel','Steel');
#554=PROPERTY_DEFINITION('material property','material name',#932);
#555=PROPERTY_DEFINITION('material property','density of part',#932);
#556=AXIS2_PLACEMENT_3D('',#769,#611,#612);
#557=AXIS2_PLACEMENT_3D('',#770,#613,#614);
#558=AXIS2_PLACEMENT_3D('',#787,#623,#624);
#559=AXIS2_PLACEMENT_3D('',#793,#628,#629);
#560=AXIS2_PLACEMENT_3D('',#799,#633,#634);
#561=AXIS2_PLACEMENT_3D('',#802,#637,#638);
#562=AXIS2_PLACEMENT_3D('',#808,#642,#643);
#563=AXIS2_PLACEMENT_3D('',#812,#646,#647);
#564=AXIS2_PLACEMENT_3D('',#816,#650,#651);
#565=AXIS2_PLACEMENT_3D('',#819,#652,#653);
#566=AXIS2_PLACEMENT_3D('',#823,#655,#656);
#567=AXIS2_PLACEMENT_3D('',#825,#658,#659);
#568=AXIS2_PLACEMENT_3D('',#831,#663,#664);
#569=AXIS2_PLACEMENT_3D('',#834,#666,#667);
#570=AXIS2_PLACEMENT_3D('',#838,#669,#670);
#571=AXIS2_PLACEMENT_3D('',#842,#672,#673);
#572=AXIS2_PLACEMENT_3D('',#845,#675,#676);
#573=AXIS2_PLACEMENT_3D('',#847,#677,#678);
#574=AXIS2_PLACEMENT_3D('',#849,#679,#680);
#575=AXIS2_PLACEMENT_3D('',#851,#681,#682);
#576=AXIS2_PLACEMENT_3D('',#852,#683,#684);
#577=AXIS2_PLACEMENT_3D('',#855,#686,#687);
#578=AXIS2_PLACEMENT_3D('',#856,#688,#689);
#579=AXIS2_PLACEMENT_3D('',#860,#692,#693);
#580=AXIS2_PLACEMENT_3D('',#863,#695,#696);
#581=AXIS2_PLACEMENT_3D('',#864,#697,#698);
#582=AXIS2_PLACEMENT_3D('',#868,#701,#702);
#583=AXIS2_PLACEMENT_3D('',#871,#704,#705);
#584=AXIS2_PLACEMENT_3D('',#872,#706,#707);
#585=AXIS2_PLACEMENT_3D('',#874,#709,#710);
#586=AXIS2_PLACEMENT_3D('',#875,#711,#712);
#587=AXIS2_PLACEMENT_3D('',#877,#713,#714);
#588=AXIS2_PLACEMENT_3D('',#880,#716,#717);
#589=AXIS2_PLACEMENT_3D('',#881,#718,#719);
#590=AXIS2_PLACEMENT_3D('',#883,#720,#721);
#591=AXIS2_PLACEMENT_3D('',#886,#723,#724);
#592=AXIS2_PLACEMENT_3D('',#887,#725,#726);
#593=AXIS2_PLACEMENT_3D('',#889,#727,#728);
#594=AXIS2_PLACEMENT_3D('',#892,#730,#731);
#595=AXIS2_PLACEMENT_3D('',#893,#732,#733);
#596=AXIS2_PLACEMENT_3D('',#895,#734,#735);
#597=AXIS2_PLACEMENT_3D('',#898,#737,#738);
#598=AXIS2_PLACEMENT_3D('',#899,#739,#740);
#599=AXIS2_PLACEMENT_3D('',#900,#741,#742);
#600=AXIS2_PLACEMENT_3D('',#903,#744,#745);
#601=AXIS2_PLACEMENT_3D('',#904,#746,#747);
#602=AXIS2_PLACEMENT_3D('',#905,#748,#749);
#603=AXIS2_PLACEMENT_3D('',#908,#751,#752);
#604=AXIS2_PLACEMENT_3D('',#909,#753,#754);
#605=AXIS2_PLACEMENT_3D('',#910,#755,#756);
#606=AXIS2_PLACEMENT_3D('',#913,#758,#759);
#607=AXIS2_PLACEMENT_3D('',#914,#760,#761);
#608=AXIS2_PLACEMENT_3D('',#915,#762,#763);
#609=AXIS2_PLACEMENT_3D('',#918,#765,#766);
#610=AXIS2_PLACEMENT_3D('',#919,#767,#768);
#611=DIRECTION('axis',(0.,0.,1.));
#612=DIRECTION('refdir',(1.,0.,0.));
#613=DIRECTION('center_axis',(0.,1.,0.));
#614=DIRECTION('ref_axis',(-1.,0.,0.));
#615=DIRECTION('',(1.,0.,0.));
#616=DIRECTION('',(0.,0.,1.));
#617=DIRECTION('',(1.,0.,0.));
#618=DIRECTION('',(0.,0.,1.));
#619=DIRECTION('',(1.,0.,0.));
#620=DIRECTION('',(0.,0.,1.));
#621=DIRECTION('',(1.,0.,0.));
#622=DIRECTION('',(0.,0.,-1.));
#623=DIRECTION('center_axis',(1.,-1.90090407435178E-16,0.));
#624=DIRECTION('ref_axis',(1.90090407435178E-16,1.,0.));
#625=DIRECTION('',(-1.90090407435178E-16,-1.,0.));
#626=DIRECTION('',(-1.90090407435178E-16,-1.,0.));
#627=DIRECTION('',(0.,0.,1.));
#628=DIRECTION('center_axis',(0.,-1.,0.));
#629=DIRECTION('ref_axis',(1.,0.,0.));
#630=DIRECTION('',(-1.,0.,0.));
#631=DIRECTION('',(-1.,0.,0.));
#632=DIRECTION('',(0.,0.,1.));
#633=DIRECTION('center_axis',(-1.,9.5045203717589E-17,0.));
#634=DIRECTION('ref_axis',(-9.50452037175889E-17,-1.,0.));
#635=DIRECTION('',(9.50452037175889E-17,1.,0.));
#636=DIRECTION('',(9.50452037175889E-17,1.,0.));
#637=DIRECTION('center_axis',(-1.,0.,0.));
#638=DIRECTION('ref_axis',(0.,1.,0.));
#639=DIRECTION('',(0.,1.,0.));
#640=DIRECTION('',(0.,0.,-1.));
#641=DIRECTION('',(0.,1.,0.));
#642=DIRECTION('center_axis',(0.,0.,-1.));
#643=DIRECTION('ref_axis',(-1.,0.,0.));
#644=DIRECTION('',(0.,-1.,0.));
#645=DIRECTION('',(1.,0.,0.));
#646=DIRECTION('center_axis',(1.,0.,0.));
#647=DIRECTION('ref_axis',(0.,-1.,0.));
#648=DIRECTION('',(0.,-1.,0.));
#649=DIRECTION('',(0.,0.,1.));
#650=DIRECTION('center_axis',(0.,0.,1.));
#651=DIRECTION('ref_axis',(-0.707106781186547,-0.707106781186547,0.));
#652=DIRECTION('center_axis',(0.,0.,-1.));
#653=DIRECTION('ref_axis',(-0.707106781186547,-0.707106781186547,0.));
#654=DIRECTION('',(0.,0.,-1.));
#655=DIRECTION('center_axis',(0.,0.,1.));
#656=DIRECTION('ref_axis',(-0.707106781186547,-0.707106781186547,0.));
#657=DIRECTION('',(0.,0.,1.));
#658=DIRECTION('center_axis',(-1.,-1.37225514445974E-16,0.));
#659=DIRECTION('ref_axis',(1.37225514445974E-16,-1.,0.));
#660=DIRECTION('',(1.37225514445974E-16,-1.,0.));
#661=DIRECTION('',(0.,0.,1.));
#662=DIRECTION('',(-1.37225514445974E-16,1.,0.));
#663=DIRECTION('center_axis',(0.,0.,1.));
#664=DIRECTION('ref_axis',(1.,0.,0.));
#665=DIRECTION('',(-1.,0.,0.));
#666=DIRECTION('center_axis',(0.,0.,-1.));
#667=DIRECTION('ref_axis',(-0.707106781186547,0.707106781186547,0.));
#668=DIRECTION('',(1.,0.,0.));
#669=DIRECTION('center_axis',(0.,0.,-1.));
#670=DIRECTION('ref_axis',(0.707106781186549,-0.707106781186546,0.));
#671=DIRECTION('',(-1.37225514445974E-16,1.,0.));
#672=DIRECTION('center_axis',(0.,0.,-1.));
#673=DIRECTION('ref_axis',(0.707106781186547,0.707106781186548,0.));
#674=DIRECTION('',(-1.,0.,0.));
#675=DIRECTION('center_axis',(0.,0.,-1.));
#676=DIRECTION('ref_axis',(1.,0.,0.));
#677=DIRECTION('center_axis',(0.,0.,-1.));
#678=DIRECTION('ref_axis',(1.,0.,0.));
#679=DIRECTION('center_axis',(0.,0.,-1.));
#680=DIRECTION('ref_axis',(1.,0.,0.));
#681=DIRECTION('center_axis',(0.,0.,-1.));
#682=DIRECTION('ref_axis',(1.,0.,0.));
#683=DIRECTION('center_axis',(0.,0.,1.));
#684=DIRECTION('ref_axis',(-0.707106781186547,0.707106781186547,0.));
#685=DIRECTION('',(0.,0.,-1.));
#686=DIRECTION('center_axis',(0.,0.,1.));
#687=DIRECTION('ref_axis',(-0.707106781186547,0.707106781186547,0.));
#688=DIRECTION('center_axis',(0.,1.,0.));
#689=DIRECTION('ref_axis',(-1.,0.,0.));
#690=DIRECTION('',(0.,0.,1.));
#691=DIRECTION('',(1.,0.,0.));
#692=DIRECTION('center_axis',(0.,0.,1.));
#693=DIRECTION('ref_axis',(0.707106781186547,0.707106781186548,0.));
#694=DIRECTION('',(0.,0.,-1.));
#695=DIRECTION('center_axis',(0.,0.,1.));
#696=DIRECTION('ref_axis',(0.707106781186547,0.707106781186548,0.));
#697=DIRECTION('center_axis',(1.,1.37225514445974E-16,0.));
#698=DIRECTION('ref_axis',(-1.37225514445974E-16,1.,0.));
#699=DIRECTION('',(0.,0.,1.));
#700=DIRECTION('',(1.37225514445974E-16,-1.,0.));
#701=DIRECTION('center_axis',(0.,0.,1.));
#702=DIRECTION('ref_axis',(0.707106781186549,-0.707106781186546,0.));
#703=DIRECTION('',(0.,0.,-1.));
#704=DIRECTION('center_axis',(0.,0.,1.));
#705=DIRECTION('ref_axis',(0.707106781186549,-0.707106781186546,0.));
#706=DIRECTION('center_axis',(0.,-1.,0.));
#707=DIRECTION('ref_axis',(1.,0.,0.));
#708=DIRECTION('',(-1.,0.,0.));
#709=DIRECTION('center_axis',(0.,0.,1.));
#710=DIRECTION('ref_axis',(1.,0.,0.));
#711=DIRECTION('center_axis',(0.,0.,1.));
#712=DIRECTION('ref_axis',(1.,0.,0.));
#713=DIRECTION('center_axis',(0.,0.,1.));
#714=DIRECTION('ref_axis',(1.,0.,0.));
#715=DIRECTION('',(0.,0.,-1.));
#716=DIRECTION('center_axis',(0.,0.,-1.));
#717=DIRECTION('ref_axis',(1.,0.,0.));
#718=DIRECTION('center_axis',(0.,0.,1.));
#719=DIRECTION('ref_axis',(1.,0.,0.));
#720=DIRECTION('center_axis',(0.,0.,1.));
#721=DIRECTION('ref_axis',(1.,0.,0.));
#722=DIRECTION('',(0.,0.,-1.));
#723=DIRECTION('center_axis',(0.,0.,-1.));
#724=DIRECTION('ref_axis',(1.,0.,0.));
#725=DIRECTION('center_axis',(0.,0.,1.));
#726=DIRECTION('ref_axis',(1.,0.,0.));
#727=DIRECTION('center_axis',(0.,0.,1.));
#728=DIRECTION('ref_axis',(1.,0.,0.));
#729=DIRECTION('',(0.,0.,-1.));
#730=DIRECTION('center_axis',(0.,0.,-1.));
#731=DIRECTION('ref_axis',(1.,0.,0.));
#732=DIRECTION('center_axis',(0.,0.,1.));
#733=DIRECTION('ref_axis',(1.,0.,0.));
#734=DIRECTION('center_axis',(0.,0.,1.));
#735=DIRECTION('ref_axis',(1.,0.,0.));
#736=DIRECTION('',(0.,0.,-1.));
#737=DIRECTION('center_axis',(0.,0.,-1.));
#738=DIRECTION('ref_axis',(1.,0.,0.));
#739=DIRECTION('center_axis',(0.,0.,1.));
#740=DIRECTION('ref_axis',(1.,0.,0.));
#741=DIRECTION('center_axis',(0.,0.,1.));
#742=DIRECTION('ref_axis',(1.,0.,0.));
#743=DIRECTION('',(0.,0.,-1.));
#744=DIRECTION('center_axis',(0.,0.,-1.));
#745=DIRECTION('ref_axis',(1.,0.,0.));
#746=DIRECTION('center_axis',(0.,0.,1.));
#747=DIRECTION('ref_axis',(1.,0.,0.));
#748=DIRECTION('center_axis',(0.,0.,1.));
#749=DIRECTION('ref_axis',(1.,0.,0.));
#750=DIRECTION('',(0.,0.,-1.));
#751=DIRECTION('center_axis',(0.,0.,-1.));
#752=DIRECTION('ref_axis',(1.,0.,0.));
#753=DIRECTION('center_axis',(0.,0.,1.));
#754=DIRECTION('ref_axis',(1.,0.,0.));
#755=DIRECTION('center_axis',(0.,0.,1.));
#756=DIRECTION('ref_axis',(1.,0.,0.));
#757=DIRECTION('',(0.,0.,-1.));
#758=DIRECTION('center_axis',(0.,0.,-1.));
#759=DIRECTION('ref_axis',(1.,0.,0.));
#760=DIRECTION('center_axis',(0.,0.,1.));
#761=DIRECTION('ref_axis',(1.,0.,0.));
#762=DIRECTION('center_axis',(0.,0.,1.));
#763=DIRECTION('ref_axis',(1.,0.,0.));
#764=DIRECTION('',(0.,0.,-1.));
#765=DIRECTION('center_axis',(0.,0.,-1.));
#766=DIRECTION('ref_axis',(1.,0.,0.));
#767=DIRECTION('center_axis',(0.,0.,1.));
#768=DIRECTION('ref_axis',(1.,0.,0.));
#769=CARTESIAN_POINT('',(0.,0.,0.));
#770=CARTESIAN_POINT('Origin',(48.5538315111003,22.1709668707081,3.));
#771=CARTESIAN_POINT('',(-22.9891684888998,22.1709668707081,13.));
#772=CARTESIAN_POINT('',(5.26083151110024,22.1709668707081,13.));
#773=CARTESIAN_POINT('',(50.6117663404087,22.1709668707081,13.));
#774=CARTESIAN_POINT('',(-22.9891684888998,22.1709668707081,3.));
#775=CARTESIAN_POINT('',(-22.9891684888998,22.1709668707081,3.));
#776=CARTESIAN_POINT('',(48.5538315111003,22.1709668707081,3.));
#777=CARTESIAN_POINT('',(-22.9891684888998,22.1709668707081,3.));
#778=CARTESIAN_POINT('',(48.5538315111003,22.1709668707081,13.));
#779=CARTESIAN_POINT('',(48.5538315111003,22.1709668707081,3.));
#780=CARTESIAN_POINT('',(20.3038315111002,22.1709668707081,13.));
#781=CARTESIAN_POINT('',(50.6117663404087,22.1709668707081,13.));
#782=CARTESIAN_POINT('',(20.3038315111002,22.1709668707081,5.5));
#783=CARTESIAN_POINT('',(20.3038315111002,22.1709668707081,8.));
#784=CARTESIAN_POINT('',(5.26083151110024,22.1709668707081,5.5));
#785=CARTESIAN_POINT('',(30.6680815111002,22.1709668707081,5.5));
#786=CARTESIAN_POINT('',(5.26083151110024,22.1709668707081,8.));
#787=CARTESIAN_POINT('Origin',(48.5538315111002,-24.5530331292919,3.));
#788=CARTESIAN_POINT('',(48.5538315111002,-24.5530331292919,13.));
#789=CARTESIAN_POINT('',(48.5538315111003,0.651145743537638,13.));
#790=CARTESIAN_POINT('',(48.5538315111002,-24.5530331292919,3.));
#791=CARTESIAN_POINT('',(48.5538315111003,22.1709668707081,3.));
#792=CARTESIAN_POINT('',(48.5538315111002,-24.5530331292919,3.));
#793=CARTESIAN_POINT('Origin',(-22.9891684888998,-24.5530331292919,3.));
#794=CARTESIAN_POINT('',(-22.9891684888998,-24.5530331292919,13.));
#795=CARTESIAN_POINT('',(14.8402663404087,-24.5530331292919,13.));
#796=CARTESIAN_POINT('',(-22.9891684888998,-24.5530331292919,3.));
#797=CARTESIAN_POINT('',(48.5538315111002,-24.5530331292919,3.));
#798=CARTESIAN_POINT('',(-22.9891684888998,-24.5530331292919,3.));
#799=CARTESIAN_POINT('Origin',(-22.9891684888998,22.1709668707081,3.));
#800=CARTESIAN_POINT('',(-22.9891684888998,24.0131457435376,13.));
#801=CARTESIAN_POINT('',(-22.9891684888998,-24.5530331292919,3.));
#802=CARTESIAN_POINT('Origin',(5.26083151110024,21.1709668707081,13.));
#803=CARTESIAN_POINT('',(5.26083151110024,31.1709668707081,5.5));
#804=CARTESIAN_POINT('',(5.26083151110024,21.1709668707081,5.5));
#805=CARTESIAN_POINT('',(5.26083151110024,31.1709668707081,13.));
#806=CARTESIAN_POINT('',(5.26083151110024,31.1709668707081,6.5));
#807=CARTESIAN_POINT('',(5.26083151110024,23.5131457435376,13.));
#808=CARTESIAN_POINT('Origin',(12.7823315111002,26.1709668707081,5.5));
#809=CARTESIAN_POINT('',(20.3038315111002,31.1709668707081,5.5));
#810=CARTESIAN_POINT('',(20.3038315111002,31.1709668707081,5.5));
#811=CARTESIAN_POINT('',(35.1680815111002,31.1709668707081,5.5));
#812=CARTESIAN_POINT('Origin',(20.3038315111002,31.1709668707081,13.));
#813=CARTESIAN_POINT('',(20.3038315111002,31.1709668707081,13.));
#814=CARTESIAN_POINT('',(20.3038315111002,28.5131457435376,13.));
#815=CARTESIAN_POINT('',(20.3038315111002,31.1709668707081,6.5));
#816=CARTESIAN_POINT('Origin',(-28.9891684888998,-30.5530331292919,0.));
#817=CARTESIAN_POINT('',(-28.9891684888997,-33.5530331292919,13.));
#818=CARTESIAN_POINT('',(-31.9891684888998,-30.5530331292919,13.));
#819=CARTESIAN_POINT('Origin',(-28.9891684888998,-30.5530331292919,13.));
#820=CARTESIAN_POINT('',(-31.9891684888998,-30.5530331292919,0.));
#821=CARTESIAN_POINT('',(-31.9891684888998,-30.5530331292919,0.));
#822=CARTESIAN_POINT('',(-28.9891684888997,-33.5530331292919,0.));
#823=CARTESIAN_POINT('Origin',(-28.9891684888998,-30.5530331292919,0.));
#824=CARTESIAN_POINT('',(-28.9891684888998,-33.5530331292919,0.));
#825=CARTESIAN_POINT('Origin',(-31.9891684888998,31.1709668707081,0.));
#826=CARTESIAN_POINT('',(-31.9891684888998,28.1709668707081,13.));
#827=CARTESIAN_POINT('',(-31.9891684888998,-33.5530331292919,13.));
#828=CARTESIAN_POINT('',(-31.9891684888998,28.1709668707081,0.));
#829=CARTESIAN_POINT('',(-31.9891684888998,28.1709668707081,0.));
#830=CARTESIAN_POINT('',(-31.9891684888998,-33.5530331292919,0.));
#831=CARTESIAN_POINT('Origin',(52.6697011697172,25.8553246163671,13.));
#832=CARTESIAN_POINT('',(-28.9891684888998,31.1709668707081,13.));
#833=CARTESIAN_POINT('',(-31.9891684888998,31.1709668707081,13.));
#834=CARTESIAN_POINT('Origin',(-28.9891684888998,28.1709668707081,13.));
#835=CARTESIAN_POINT('',(54.5538315111003,-33.5530331292919,13.));
#836=CARTESIAN_POINT('',(57.5538315111002,-33.5530331292919,13.));
#837=CARTESIAN_POINT('',(57.5538315111002,-30.5530331292919,13.));
#838=CARTESIAN_POINT('Origin',(54.5538315111003,-30.5530331292919,13.));
#839=CARTESIAN_POINT('',(57.5538315111002,28.1709668707081,13.));
#840=CARTESIAN_POINT('',(57.5538315111002,31.1709668707081,13.));
#841=CARTESIAN_POINT('',(54.5538315111003,31.1709668707081,13.));
#842=CARTESIAN_POINT('Origin',(54.5538315111003,28.1709668707081,13.));
#843=CARTESIAN_POINT('',(-31.9891684888998,31.1709668707081,13.));
#844=CARTESIAN_POINT('',(50.1697011697172,25.8553246163671,13.));
#845=CARTESIAN_POINT('Origin',(52.6697011697172,25.8553246163671,13.));
#846=CARTESIAN_POINT('',(-29.6277301045509,-28.7976674175112,13.));
#847=CARTESIAN_POINT('Origin',(-27.1277301045509,-28.7976674175112,13.));
#848=CARTESIAN_POINT('',(49.7912883674493,-28.3708049088729,13.));
#849=CARTESIAN_POINT('Origin',(52.2912883674493,-28.3708049088729,13.));
#850=CARTESIAN_POINT('',(-29.5117945441628,25.8365821455802,13.));
#851=CARTESIAN_POINT('Origin',(-27.0117945441628,25.8365821455802,13.));
#852=CARTESIAN_POINT('Origin',(-28.9891684888998,28.1709668707081,0.));
#853=CARTESIAN_POINT('',(-28.9891684888998,31.1709668707081,0.));
#854=CARTESIAN_POINT('',(-28.9891684888998,31.1709668707081,0.));
#855=CARTESIAN_POINT('Origin',(-28.9891684888998,28.1709668707081,0.));
#856=CARTESIAN_POINT('Origin',(57.5538315111002,31.1709668707081,0.));
#857=CARTESIAN_POINT('',(54.5538315111003,31.1709668707081,0.));
#858=CARTESIAN_POINT('',(54.5538315111003,31.1709668707081,0.));
#859=CARTESIAN_POINT('',(-31.9891684888998,31.1709668707081,0.));
#860=CARTESIAN_POINT('Origin',(54.5538315111003,28.1709668707081,0.));
#861=CARTESIAN_POINT('',(57.5538315111002,28.1709668707081,0.));
#862=CARTESIAN_POINT('',(57.5538315111002,28.1709668707081,0.));
#863=CARTESIAN_POINT('Origin',(54.5538315111003,28.1709668707081,0.));
#864=CARTESIAN_POINT('Origin',(57.5538315111002,-33.5530331292919,0.));
#865=CARTESIAN_POINT('',(57.5538315111002,-30.5530331292919,0.));
#866=CARTESIAN_POINT('',(57.5538315111002,-30.5530331292919,0.));
#867=CARTESIAN_POINT('',(57.5538315111002,31.1709668707081,0.));
#868=CARTESIAN_POINT('Origin',(54.5538315111003,-30.5530331292919,0.));
#869=CARTESIAN_POINT('',(54.5538315111003,-33.5530331292919,0.));
#870=CARTESIAN_POINT('',(54.5538315111003,-33.5530331292919,0.));
#871=CARTESIAN_POINT('Origin',(54.5538315111003,-30.5530331292919,0.));
#872=CARTESIAN_POINT('Origin',(-31.9891684888998,-33.5530331292919,0.));
#873=CARTESIAN_POINT('',(57.5538315111002,-33.5530331292919,0.));
#874=CARTESIAN_POINT('Origin',(12.7823315111002,-1.19103312929187,3.));
#875=CARTESIAN_POINT('Origin',(52.6697011697172,25.8553246163671,0.));
#876=CARTESIAN_POINT('',(49.169701154816,25.8553246163671,3.1));
#877=CARTESIAN_POINT('Origin',(52.6697011697172,25.8553246163671,3.1));
#878=CARTESIAN_POINT('',(49.169701154816,25.8553246163671,0.));
#879=CARTESIAN_POINT('',(49.169701154816,25.8553246163671,0.));
#880=CARTESIAN_POINT('Origin',(52.6697011697172,25.8553246163671,0.));
#881=CARTESIAN_POINT('Origin',(-27.0117945441628,25.8365821455802,0.));
#882=CARTESIAN_POINT('',(-30.5117945590639,25.8365821455802,3.1));
#883=CARTESIAN_POINT('Origin',(-27.0117945441628,25.8365821455802,3.1));
#884=CARTESIAN_POINT('',(-30.5117945590639,25.8365821455802,0.));
#885=CARTESIAN_POINT('',(-30.5117945590639,25.8365821455802,0.));
#886=CARTESIAN_POINT('Origin',(-27.0117945441628,25.8365821455802,0.));
#887=CARTESIAN_POINT('Origin',(-27.1277301045509,-28.7976674175112,0.));
#888=CARTESIAN_POINT('',(-30.627730119452,-28.7976674175112,3.1));
#889=CARTESIAN_POINT('Origin',(-27.1277301045509,-28.7976674175112,3.1));
#890=CARTESIAN_POINT('',(-30.627730119452,-28.7976674175112,0.));
#891=CARTESIAN_POINT('',(-30.627730119452,-28.7976674175112,0.));
#892=CARTESIAN_POINT('Origin',(-27.1277301045509,-28.7976674175112,0.));
#893=CARTESIAN_POINT('Origin',(52.2912883674493,-28.3708049088729,0.));
#894=CARTESIAN_POINT('',(48.7912883525481,-28.3708049088729,3.1));
#895=CARTESIAN_POINT('Origin',(52.2912883674493,-28.3708049088729,3.1));
#896=CARTESIAN_POINT('',(48.7912883525481,-28.3708049088729,0.));
#897=CARTESIAN_POINT('',(48.7912883525481,-28.3708049088729,0.));
#898=CARTESIAN_POINT('Origin',(52.2912883674493,-28.3708049088729,0.));
#899=CARTESIAN_POINT('Origin',(12.7823315111002,-1.19103312929187,0.));
#900=CARTESIAN_POINT('Origin',(52.2912883674493,-28.3708049088729,3.1));
#901=CARTESIAN_POINT('',(49.7912883674493,-28.3708049088729,3.1));
#902=CARTESIAN_POINT('',(49.7912883674493,-28.3708049088729,3.1));
#903=CARTESIAN_POINT('Origin',(52.2912883674493,-28.3708049088729,3.1));
#904=CARTESIAN_POINT('Origin',(52.2912883674493,-28.3708049088729,3.1));
#905=CARTESIAN_POINT('Origin',(-27.1277301045509,-28.7976674175112,3.1));
#906=CARTESIAN_POINT('',(-29.6277301045509,-28.7976674175112,3.1));
#907=CARTESIAN_POINT('',(-29.6277301045509,-28.7976674175112,3.1));
#908=CARTESIAN_POINT('Origin',(-27.1277301045509,-28.7976674175112,3.1));
#909=CARTESIAN_POINT('Origin',(-27.1277301045509,-28.7976674175112,3.1));
#910=CARTESIAN_POINT('Origin',(-27.0117945441628,25.8365821455802,3.1));
#911=CARTESIAN_POINT('',(-29.5117945441628,25.8365821455802,3.1));
#912=CARTESIAN_POINT('',(-29.5117945441628,25.8365821455802,3.1));
#913=CARTESIAN_POINT('Origin',(-27.0117945441628,25.8365821455802,3.1));
#914=CARTESIAN_POINT('Origin',(-27.0117945441628,25.8365821455802,3.1));
#915=CARTESIAN_POINT('Origin',(52.6697011697172,25.8553246163671,3.1));
#916=CARTESIAN_POINT('',(50.1697011697172,25.8553246163671,3.1));
#917=CARTESIAN_POINT('',(50.1697011697172,25.8553246163671,3.1));
#918=CARTESIAN_POINT('Origin',(52.6697011697172,25.8553246163671,3.1));
#919=CARTESIAN_POINT('Origin',(52.6697011697172,25.8553246163671,3.1));
#920=UNCERTAINTY_MEASURE_WITH_UNIT(LENGTH_MEASURE(0.01),#924,
'DISTANCE_ACCURACY_VALUE',
'Maximum model space distance between geometric entities at asserted c
onnectivities');
#921=UNCERTAINTY_MEASURE_WITH_UNIT(LENGTH_MEASURE(0.01),#924,
'DISTANCE_ACCURACY_VALUE',
'Maximum model space distance between geometric entities at asserted c
onnectivities');
#922=(
GEOMETRIC_REPRESENTATION_CONTEXT(3)
GLOBAL_UNCERTAINTY_ASSIGNED_CONTEXT((#920))
GLOBAL_UNIT_ASSIGNED_CONTEXT((#924,#926,#927))
REPRESENTATION_CONTEXT('','3D')
);
#923=(
GEOMETRIC_REPRESENTATION_CONTEXT(3)
GLOBAL_UNCERTAINTY_ASSIGNED_CONTEXT((#921))
GLOBAL_UNIT_ASSIGNED_CONTEXT((#924,#926,#927))
REPRESENTATION_CONTEXT('','3D')
);
#924=(
LENGTH_UNIT()
NAMED_UNIT(*)
SI_UNIT(.MILLI.,.METRE.)
);
#925=(
LENGTH_UNIT()
NAMED_UNIT(*)
SI_UNIT($,.METRE.)
);
#926=(
NAMED_UNIT(*)
PLANE_ANGLE_UNIT()
SI_UNIT($,.RADIAN.)
);
#927=(
NAMED_UNIT(*)
SI_UNIT($,.STERADIAN.)
SOLID_ANGLE_UNIT()
);
#928=SHAPE_DEFINITION_REPRESENTATION(#929,#930);
#929=PRODUCT_DEFINITION_SHAPE('',$,#932);
#930=SHAPE_REPRESENTATION('',(#556),#922);
#931=PRODUCT_DEFINITION_CONTEXT('part definition',#936,'design');
#932=PRODUCT_DEFINITION('Base','Base v3',#933,#931);
#933=PRODUCT_DEFINITION_FORMATION('',$,#938);
#934=PRODUCT_RELATED_PRODUCT_CATEGORY('Base v3','Base v3',(#938));
#935=APPLICATION_PROTOCOL_DEFINITION('international standard',
'automotive_design',2009,#936);
#936=APPLICATION_CONTEXT(
'Core Data for Automotive Mechanical Design Process');
#937=PRODUCT_CONTEXT('part definition',#936,'mechanical');
#938=PRODUCT('Base','Base v3',$,(#937));
#939=PRESENTATION_STYLE_ASSIGNMENT((#940));
#940=SURFACE_STYLE_USAGE(.BOTH.,#941);
#941=SURFACE_SIDE_STYLE('',(#942));
#942=SURFACE_STYLE_FILL_AREA(#943);
#943=FILL_AREA_STYLE('Steel - Satin',(#944));
#944=FILL_AREA_STYLE_COLOUR('Steel - Satin',#945);
#945=COLOUR_RGB('Steel - Satin',0.627450980392157,0.627450980392157,0.627450980392157);
ENDSEC;
END-ISO-10303-21;
